<svg width="863" height="157" viewBox="0 0 863 157" fill="none" xmlns="http://www.w3.org/2000/svg">
  <path d="M12.978 1.02654C26.1734 -4.23646 40.4529 11.9932 46.6603 21.2163C62.8627 45.2766 70.1605 72.3708 68.8506 101.209C68.2097 115.256 66.3664 129.172 63.3208 142.955C63.3069 143.022 63.2767 143.085 63.233 143.138C63.1892 143.191 63.133 143.234 63.0691 143.262L50.1318 148.946C49.8866 149.053 49.6801 149.001 49.5123 148.793C35.1231 131.369 22.7342 112.06 13.1135 91.6918C3.92504 72.2366 -0.434737 51.619 0.0341482 29.8389C0.253535 19.8558 2.98942 5.01211 12.978 1.02654Z" fill="#F23720"/>
  <path d="M96.1878 58.8773C97.3367 81.6258 100.394 104.742 116.044 123.009C116.184 123.178 116.186 123.349 116.05 123.522C109.046 132.388 101.543 140.813 93.5391 148.8C93.3434 148.994 93.1136 149.047 92.8498 148.958L78.2022 143.894C78.0022 143.826 77.8873 143.687 77.8575 143.476C75.6577 127.22 74.728 112.489 75.0684 99.2845C75.5088 82.2533 77.5193 64.5502 82.7592 48.2669C84.6421 42.4166 88.1588 35.7993 93.6859 32.8964C101.485 28.7954 111.793 32.3513 120.052 34.1831C131.329 36.6804 148.37 43.1328 154.147 53.2616C155.432 55.5096 156.495 58.4907 157.338 62.205C160.752 77.2143 158.921 93.8335 151.708 107.562C147.834 114.934 141.656 122.762 133.589 125.855C125.63 128.91 117.416 121.969 113.382 115.701C112.31 114.036 110.893 111.372 109.131 107.708C101.9 92.6799 97.9877 75.8959 96.6601 59.34C96.6474 59.1795 96.5538 58.9999 96.3793 58.8013C96.2432 58.6492 96.1793 58.6745 96.1878 58.8773Z" fill="#0662F7"/>
  <path d="M195.449 126V31.4545H252.139V41.6108H206.898V73.5568H247.892V83.7131H206.898V126H195.449ZM269.509 126V55.0909H280.034V65.8011H280.773C282.066 62.2926 284.405 59.4458 287.79 57.2606C291.175 55.0755 294.992 53.9829 299.239 53.9829C300.039 53.9829 301.039 53.9983 302.24 54.0291C303.44 54.0599 304.348 54.1061 304.963 54.1676V65.2472C304.594 65.1548 303.748 65.0163 302.424 64.8317C301.132 64.6162 299.762 64.5085 298.316 64.5085C294.869 64.5085 291.791 65.2318 289.083 66.6783C286.405 68.094 284.281 70.0637 282.712 72.5874C281.173 75.0803 280.404 77.9271 280.404 81.1278V126H269.509ZM317.878 126V55.0909H328.773V126H317.878ZM323.418 43.2727C321.294 43.2727 319.463 42.5495 317.924 41.103C316.416 39.6565 315.662 37.9176 315.662 35.8864C315.662 33.8551 316.416 32.1162 317.924 30.6697C319.463 29.2232 321.294 28.5 323.418 28.5C325.541 28.5 327.357 29.2232 328.865 30.6697C330.404 32.1162 331.173 33.8551 331.173 35.8864C331.173 37.9176 330.404 39.6565 328.865 41.103C327.357 42.5495 325.541 43.2727 323.418 43.2727ZM378.458 127.477C371.625 127.477 365.731 125.969 360.776 122.953C355.852 119.906 352.051 115.659 349.374 110.212C346.727 104.733 345.404 98.3627 345.404 91.0994C345.404 83.8362 346.727 77.4347 349.374 71.8949C352.051 66.3243 355.775 61.9848 360.546 58.8764C365.347 55.7372 370.948 54.1676 377.35 54.1676C381.043 54.1676 384.69 54.7831 388.291 56.0142C391.892 57.2453 395.169 59.2457 398.124 62.0156C401.078 64.7547 403.433 68.3864 405.187 72.9105C406.941 77.4347 407.818 83.0052 407.818 89.6222V94.2386H353.159V84.821H396.739C396.739 80.8201 395.939 77.25 394.338 74.1108C392.769 70.9716 390.522 68.4941 387.598 66.6783C384.705 64.8625 381.289 63.9545 377.35 63.9545C373.01 63.9545 369.255 65.0317 366.085 67.1861C362.946 69.3097 360.53 72.0795 358.838 75.4957C357.145 78.9119 356.298 82.5743 356.298 86.483V92.7614C356.298 98.1165 357.222 102.656 359.068 106.38C360.946 110.073 363.546 112.889 366.87 114.828C370.194 116.736 374.057 117.69 378.458 117.69C381.32 117.69 383.905 117.29 386.213 116.49C388.552 115.659 390.568 114.428 392.261 112.797C393.954 111.135 395.262 109.073 396.185 106.611L406.71 109.565C405.602 113.135 403.74 116.275 401.124 118.983C398.508 121.661 395.277 123.753 391.43 125.261C387.583 126.739 383.259 127.477 378.458 127.477ZM435.286 83.3438V126H424.392V55.0909H434.917V66.1705H435.84C437.502 62.5696 440.026 59.6766 443.411 57.4915C446.797 55.2756 451.167 54.1676 456.522 54.1676C461.323 54.1676 465.524 55.1525 469.125 57.1222C472.726 59.0611 475.527 62.0156 477.527 65.9858C479.528 69.9252 480.528 74.911 480.528 80.9432V126H469.633V81.6818C469.633 76.1113 468.186 71.7718 465.294 68.6633C462.401 65.5241 458.43 63.9545 453.383 63.9545C449.905 63.9545 446.797 64.7086 444.058 66.2166C441.349 67.7247 439.21 69.9252 437.641 72.8182C436.071 75.7112 435.286 79.2197 435.286 83.3438ZM527.212 127.477C521.303 127.477 516.086 125.985 511.562 122.999C507.038 119.983 503.499 115.736 500.944 110.258C498.39 104.749 497.113 98.2396 497.113 90.7301C497.113 83.2822 498.39 76.8191 500.944 71.3409C503.499 65.8627 507.053 61.6309 511.608 58.6456C516.163 55.6603 521.426 54.1676 527.397 54.1676C532.013 54.1676 535.66 54.937 538.338 56.4759C541.046 57.9839 543.108 59.7074 544.524 61.6463C545.97 63.5544 547.094 65.1241 547.894 66.3551H548.817V31.4545H559.712V126H549.186V115.105H547.894C547.094 116.398 545.955 118.029 544.478 119.999C543 121.937 540.892 123.676 538.153 125.215C535.414 126.723 531.767 127.477 527.212 127.477ZM528.689 117.69C533.06 117.69 536.753 116.552 539.769 114.274C542.785 111.966 545.078 108.781 546.647 104.718C548.217 100.625 549.002 95.9006 549.002 90.5455C549.002 85.2519 548.232 80.62 546.694 76.6499C545.155 72.6489 542.877 69.5405 539.861 67.3246C536.845 65.0779 533.121 63.9545 528.689 63.9545C524.073 63.9545 520.226 65.1394 517.148 67.5092C514.101 69.8482 511.808 73.0336 510.27 77.0653C508.761 81.0663 508.007 85.5597 508.007 90.5455C508.007 95.5928 508.777 100.179 510.316 104.303C511.885 108.396 514.194 111.658 517.24 114.089C520.318 116.49 524.134 117.69 528.689 117.69ZM579.424 31.4545H604.076L630.113 94.9773H631.221L657.258 31.4545H681.91V126H662.521V64.4624H661.736L637.269 125.538H624.066L599.598 64.2315H598.814V126H579.424V31.4545ZM698.379 126V31.4545H762.087V47.9354H718.369V70.4638H758.809V86.9446H718.369V109.519H762.271V126H698.379ZM796.722 31.4545L815.788 63.6776H816.527L835.685 31.4545H858.26L829.407 78.7273L858.906 126H835.916L816.527 93.7308H815.788L796.399 126H773.501L803.093 78.7273L774.055 31.4545H796.722Z" fill="white"/>
</svg>
